<svg xmlns="http://www.w3.org/2000/svg" width="512" height="512" viewBox="0 0 512 512">
  <rect width="512" height="512" rx="80" fill="#0F1923"/>
  <rect width="512" height="512" rx="80" fill="url(#grad)"/>
  <defs>
    <linearGradient id="grad" x1="0%" y1="0%" x2="100%" y2="100%">
      <stop offset="0%" style="stop-color:#0F1923;stop-opacity:1" />
      <stop offset="100%" style="stop-color:#1A2535;stop-opacity:1" />
    </linearGradient>
  </defs>
  <!-- Green accent bar top -->
  <rect x="60" y="60" width="120" height="8" rx="4" fill="#00C48C"/>
  <!-- F letter -->
  <rect x="80" y="160" width="18" height="180" rx="4" fill="#E8F0F8"/>
  <rect x="80" y="160" width="110" height="18" rx="4" fill="#E8F0F8"/>
  <rect x="80" y="238" width="85" height="16" rx="4" fill="#E8F0F8"/>
  <!-- R letter -->
  <rect x="225" y="160" width="18" height="180" rx="4" fill="#00C48C"/>
  <rect x="225" y="160" width="95" height="16" rx="4" fill="#00C48C"/>
  <rect x="300" y="160" width="18" height="90" rx="4" fill="#00C48C"/>
  <rect x="225" y="234" width="95" height="16" rx="4" fill="#00C48C"/>
  <rect x="278" y="250" width="65" height="90" rx="4" fill="#00C48C"/>
  <!-- Tagline dots -->
  <circle cx="150" cy="390" r="6" fill="#00C48C"/>
  <circle cx="170" cy="390" r="6" fill="#00C48C" opacity="0.6"/>
  <circle cx="190" cy="390" r="6" fill="#00C48C" opacity="0.3"/>
  <!-- Bottom text area -->
  <rect x="60" y="420" width="392" height="3" rx="2" fill="#2A3F55"/>
  <text x="256" y="465" font-family="Arial, sans-serif" font-size="32" font-weight="bold" fill="#7A93AC" text-anchor="middle" letter-spacing="8">FINANZAS</text>
</svg>